<svg xmlns="http://www.w3.org/2000/svg" viewBox="-64 104 3720 622" width="3720" height="622"><path d="M278.465 137.952 C 275.358 139.211,274.370 140.934,272.703 148.000 C 269.512 161.525,261.964 190.756,260.050 197.000 C 256.041 210.079,253.108 220.790,250.056 233.500 C 248.340 240.650,246.274 248.975,245.466 252.000 C 244.659 255.025,243.353 260.200,242.564 263.500 C 240.611 271.674,238.346 279.969,235.466 289.500 C 234.136 293.900,232.768 298.850,232.426 300.500 C 232.083 302.150,230.944 306.425,229.895 310.000 C 227.910 316.762,220.809 345.058,218.473 355.515 C 217.734 358.823,216.591 362.873,215.934 364.515 C 214.535 368.009,213.432 372.165,203.999 409.500 C 197.055 436.980,195.314 443.445,190.534 459.500 C 189.224 463.900,186.747 473.350,185.029 480.500 C 181.669 494.489,178.819 505.657,175.972 516.000 C 174.988 519.575,173.894 524.075,173.540 526.000 C 173.186 527.925,171.808 533.100,170.478 537.500 C 166.016 552.256,163.061 563.368,157.978 584.500 C 152.335 607.959,152.008 609.236,147.849 624.000 C 146.223 629.775,144.054 637.875,143.029 642.000 C 142.005 646.125,139.475 656.155,137.408 664.289 C 134.046 677.518,133.810 679.238,135.169 680.597 C 136.516 681.945,157.489 682.121,320.963 682.154 C 481.704 682.186,505.425 682.003,506.706 680.722 C 507.514 679.915,509.502 673.909,511.124 667.377 C 512.747 660.845,514.720 653.025,515.510 650.000 C 517.634 641.862,520.903 628.573,523.011 619.500 C 524.034 615.100,526.245 606.550,527.923 600.500 C 535.854 571.919,538.916 558.966,538.965 553.785 C 539.014 548.581,536.894 547.708,525.107 548.078 C 519.823 548.243,474.524 548.294,424.441 548.190 C 353.410 548.042,333.009 547.725,331.684 546.750 C 330.102 545.586,330.200 544.574,333.121 532.000 C 338.432 509.132,339.706 503.914,343.009 491.500 C 344.765 484.900,347.220 475.675,348.465 471.000 C 349.710 466.325,351.481 459.575,352.400 456.000 C 354.463 447.971,357.654 435.760,360.107 426.500 C 361.127 422.650,363.751 412.300,365.937 403.500 C 368.123 394.700,370.560 385.475,371.351 383.000 C 374.047 374.569,380.319 349.606,388.058 316.500 C 390.290 306.952,393.464 295.207,395.490 289.000 C 396.298 286.525,397.599 281.575,398.382 278.000 C 400.011 270.553,409.583 233.128,413.472 219.000 C 414.910 213.775,416.903 206.125,417.900 202.000 C 418.897 197.875,420.448 192.025,421.347 189.000 C 422.247 185.975,424.361 177.650,426.046 170.500 C 427.731 163.350,429.975 153.965,431.033 149.644 C 432.322 144.382,432.651 141.215,432.028 140.053 C 431.234 138.569,428.883 138.221,415.891 137.658 C 394.242 136.721,280.904 136.963,278.465 137.952 M2011.315 138.007 C 2010.114 138.491,2008.613 139.854,2007.981 141.035 C 2006.950 142.961,2003.467 155.485,1997.978 177.000 C 1996.925 181.125,1994.317 191.250,1992.181 199.500 C 1990.045 207.750,1987.054 219.900,1985.534 226.500 C 1984.014 233.100,1981.940 241.425,1980.924 245.000 C 1979.908 248.575,1978.377 254.200,1977.523 257.500 C 1976.668 260.800,1974.356 269.575,1972.384 277.000 C 1970.413 284.425,1968.211 292.975,1967.491 296.000 C 1966.770 299.025,1965.050 306.225,1963.667 312.000 C 1962.285 317.775,1960.408 325.650,1959.496 329.500 C 1958.585 333.350,1956.993 339.200,1955.960 342.500 C 1953.737 349.602,1940.327 401.861,1938.512 410.500 C 1937.332 416.114,1936.220 420.276,1930.499 440.500 C 1927.198 452.168,1923.401 466.961,1920.488 479.500 C 1917.012 494.464,1913.185 509.277,1910.929 516.500 C 1908.822 523.248,1900.485 555.314,1898.450 564.500 C 1897.719 567.800,1895.462 576.800,1893.434 584.500 C 1891.406 592.200,1889.125 600.975,1888.365 604.000 C 1887.604 607.025,1886.340 611.525,1885.556 614.000 C 1884.771 616.475,1882.521 625.250,1880.555 633.500 C 1878.590 641.750,1876.329 650.750,1875.531 653.500 C 1874.733 656.250,1873.791 660.525,1873.436 663.000 C 1873.082 665.475,1872.134 670.154,1871.330 673.398 C 1870.081 678.440,1870.071 679.499,1871.261 680.690 C 1872.435 681.863,1892.557 682.116,1999.077 682.291 C 2125.500 682.500,2125.500 682.500,2144.000 679.755 C 2174.853 675.177,2199.798 668.719,2216.500 660.986 C 2218.700 659.967,2223.650 657.704,2227.500 655.956 C 2235.997 652.098,2253.019 642.660,2258.500 638.768 C 2260.700 637.206,2264.140 634.843,2266.145 633.517 C 2271.309 630.103,2280.137 622.862,2289.863 614.065 C 2305.625 599.806,2327.932 572.046,2341.175 550.209 C 2352.188 532.049,2363.645 510.169,2368.773 497.500 C 2379.218 471.700,2381.064 466.819,2386.166 451.500 C 2391.356 435.916,2394.997 423.767,2397.554 413.500 C 2398.375 410.200,2399.920 404.800,2400.985 401.500 C 2404.383 390.974,2409.385 368.716,2412.558 350.000 C 2413.350 345.325,2414.678 338.208,2415.508 334.184 C 2416.338 330.160,2417.978 314.860,2419.153 300.184 C 2421.377 272.402,2421.219 264.883,2417.859 238.500 C 2416.903 230.993,2411.886 211.660,2409.972 208.106 C 2409.496 207.222,2407.923 204.025,2406.475 201.000 C 2398.602 184.549,2379.143 166.199,2360.000 157.174 C 2332.323 144.124,2310.248 139.549,2267.500 138.002 C 2234.702 136.815,2014.263 136.819,2011.315 138.007 M3147.323 137.686 C 3146.125 137.925,3144.726 138.656,3144.214 139.310 C 3143.039 140.812,3138.000 155.528,3138.000 157.457 C 3138.000 158.249,3136.938 162.407,3135.640 166.698 C 3131.871 179.157,3126.139 201.312,3123.014 215.500 C 3119.504 231.431,3116.768 240.539,3114.913 242.462 C 3113.115 244.326,3111.483 244.425,3082.064 244.462 C 3061.627 244.487,3050.745 244.861,3050.042 245.561 C 3048.329 247.269,3042.885 267.152,3036.094 296.500 C 3031.544 316.163,3028.099 329.585,3025.956 336.000 C 3023.658 342.880,3021.000 354.377,3021.000 357.440 C 3021.000 362.177,3022.135 362.345,3052.483 362.093 C 3071.741 361.933,3081.530 362.213,3082.933 362.964 C 3085.650 364.418,3085.569 367.014,3082.384 380.500 C 3080.956 386.550,3078.990 394.875,3078.017 399.000 C 3077.043 403.125,3075.059 410.775,3073.607 416.000 C 3066.192 442.685,3062.372 457.702,3058.088 477.000 C 3056.314 484.990,3053.321 496.504,3047.561 517.500 C 3044.638 528.154,3038.910 550.944,3036.056 563.277 C 3032.168 580.076,3029.000 603.705,3029.000 615.900 C 3029.000 636.373,3034.525 651.740,3045.449 661.653 C 3052.596 668.139,3057.495 670.979,3068.325 674.914 C 3089.828 682.726,3105.728 683.985,3174.731 683.338 C 3220.640 682.907,3230.418 682.440,3232.265 680.590 C 3232.944 679.910,3234.537 675.112,3235.805 669.927 C 3237.073 664.742,3239.942 653.300,3242.181 644.500 C 3244.420 635.700,3247.043 625.125,3248.010 621.000 C 3248.977 616.875,3250.227 612.348,3250.787 610.940 C 3251.347 609.533,3253.184 603.008,3254.868 596.440 C 3261.775 569.508,3262.076 568.010,3260.981 565.964 C 3260.403 564.884,3259.833 563.990,3259.715 563.977 C 3259.597 563.965,3246.225 563.709,3230.000 563.408 C 3213.775 563.108,3197.260 562.490,3193.299 562.034 C 3185.407 561.126,3180.522 558.503,3178.931 554.317 C 3177.491 550.532,3177.829 540.057,3179.603 533.460 C 3180.484 530.182,3182.298 523.450,3183.632 518.500 C 3184.967 513.550,3186.727 506.800,3187.543 503.500 C 3188.359 500.200,3189.915 494.125,3191.002 490.000 C 3192.088 485.875,3194.572 475.975,3196.521 468.000 C 3198.471 460.025,3201.416 448.775,3203.066 443.000 C 3204.716 437.225,3207.853 425.300,3210.037 416.500 C 3212.220 407.700,3214.646 398.250,3215.427 395.500 C 3216.208 392.750,3217.345 388.025,3217.953 385.000 C 3218.561 381.975,3220.092 376.125,3221.355 372.000 C 3223.075 366.386,3224.262 364.189,3226.076 363.265 C 3227.951 362.309,3250.966 362.026,3327.677 362.015 C 3426.855 362.000,3426.855 362.000,3428.784 359.547 C 3429.845 358.198,3431.214 355.161,3431.825 352.797 C 3434.715 341.628,3436.370 334.861,3438.014 327.500 C 3440.789 315.075,3447.134 290.152,3449.726 281.500 C 3453.566 268.682,3457.955 249.434,3457.421 247.752 C 3457.095 246.726,3455.713 245.461,3454.349 244.943 C 3452.859 244.376,3413.660 244.000,3356.135 244.000 C 3283.008 244.000,3260.117 243.717,3259.200 242.800 C 3258.540 242.140,3258.000 240.714,3258.000 239.631 C 3258.000 236.266,3266.217 202.347,3273.658 175.000 C 3275.079 169.775,3277.038 162.125,3278.011 158.000 C 3278.983 153.875,3280.372 148.360,3281.098 145.745 C 3282.283 141.476,3282.239 140.811,3280.674 139.245 C 3279.053 137.624,3274.340 137.491,3214.215 137.376 C 3178.622 137.307,3148.520 137.447,3147.323 137.686 M819.500 236.686 C 800.692 237.649,790.108 239.408,765.500 245.656 C 752.609 248.929,731.785 256.513,726.000 260.041 C 725.175 260.545,721.385 262.568,717.577 264.537 C 703.164 271.993,700.513 273.731,685.367 285.659 C 669.739 297.966,656.110 312.750,644.489 330.000 C 640.228 336.325,636.159 342.175,635.448 343.000 C 634.002 344.676,624.738 362.990,617.237 379.000 C 612.911 388.235,611.077 392.764,605.494 408.000 C 604.789 409.925,602.751 416.225,600.965 422.000 C 599.179 427.775,596.703 435.650,595.462 439.500 C 591.191 452.756,585.251 477.289,581.540 497.000 C 578.945 510.790,574.934 534.000,573.937 541.000 C 572.364 552.044,571.652 586.771,572.809 596.000 C 574.349 608.288,578.558 622.177,583.869 632.500 C 587.860 640.255,590.229 643.229,601.000 654.002 C 612.551 665.554,614.298 666.898,624.000 671.701 C 643.069 681.141,658.224 685.752,683.248 689.728 C 699.190 692.260,702.739 692.469,730.000 692.480 C 757.167 692.491,760.982 692.272,778.243 689.704 C 788.551 688.171,798.676 686.326,800.743 685.604 C 802.809 684.882,806.300 683.978,808.500 683.595 C 818.378 681.875,851.514 670.198,862.000 664.743 C 880.910 654.905,895.788 644.141,909.908 630.084 C 916.859 623.163,923.886 615.732,925.523 613.572 C 927.161 611.411,929.254 608.857,930.175 607.897 C 932.163 605.823,943.000 590.466,943.000 589.721 C 943.000 589.437,944.885 586.121,947.189 582.352 C 952.642 573.431,957.251 562.135,956.560 559.382 C 956.261 558.193,955.001 556.969,953.759 556.661 C 950.642 555.887,829.239 555.802,825.396 556.571 C 823.467 556.957,819.827 559.574,815.775 563.489 C 808.320 570.692,797.129 576.592,788.125 578.067 C 780.739 579.277,745.344 579.227,736.825 577.995 C 719.272 575.456,710.989 562.882,711.007 538.803 C 711.015 528.094,713.292 511.308,714.963 509.637 C 715.795 508.805,749.955 508.366,842.300 508.000 C 911.710 507.725,969.057 507.140,969.737 506.699 C 970.417 506.259,971.680 503.334,972.544 500.199 C 973.407 497.065,974.734 492.925,975.491 491.000 C 976.249 489.075,978.274 482.325,979.992 476.000 C 981.710 469.675,984.160 460.675,985.436 456.000 C 986.713 451.325,988.979 442.775,990.472 437.000 C 991.966 431.225,994.044 423.682,995.091 420.238 C 998.646 408.540,1002.863 384.560,1004.541 366.500 C 1006.242 348.186,1006.064 335.382,1003.877 318.519 C 1002.744 309.785,998.276 295.755,995.215 291.315 C 994.147 289.767,991.828 286.157,990.060 283.293 C 984.157 273.728,967.432 260.134,953.398 253.495 C 935.926 245.230,908.538 238.914,882.170 237.071 C 868.323 236.104,834.877 235.898,819.500 236.686 M1773.000 237.137 C 1761.018 238.117,1756.148 238.993,1743.500 242.447 C 1725.340 247.406,1711.186 253.214,1700.500 260.091 C 1686.659 268.999,1679.070 274.373,1674.876 278.239 C 1661.471 290.591,1654.043 297.000,1653.134 297.000 C 1652.575 297.000,1651.898 296.644,1651.629 296.208 C 1650.787 294.846,1656.126 270.248,1660.163 256.891 C 1661.261 253.256,1662.012 248.981,1661.830 247.391 C 1661.500 244.500,1661.500 244.500,1600.199 244.242 C 1559.792 244.072,1538.245 244.334,1536.984 245.009 C 1535.932 245.572,1534.561 247.938,1533.937 250.266 C 1533.314 252.595,1531.965 256.976,1530.939 260.003 C 1529.912 263.029,1528.418 268.429,1527.617 272.003 C 1526.168 278.471,1518.235 310.524,1515.490 321.000 C 1514.698 324.025,1513.132 330.100,1512.011 334.500 C 1510.890 338.900,1508.861 346.550,1507.503 351.500 C 1506.145 356.450,1504.342 363.200,1503.497 366.500 C 1502.653 369.800,1501.310 374.975,1500.513 378.000 C 1498.989 383.790,1491.117 415.244,1488.001 428.000 C 1486.993 432.125,1485.502 437.525,1484.689 440.000 C 1482.300 447.267,1472.485 485.852,1467.954 505.789 C 1466.918 510.347,1465.779 514.549,1465.423 515.125 C 1465.066 515.702,1463.763 520.072,1462.527 524.837 C 1461.291 529.601,1457.937 542.500,1455.074 553.500 C 1452.211 564.500,1449.053 576.875,1448.057 581.000 C 1443.969 597.918,1441.937 605.733,1440.514 610.000 C 1438.864 614.949,1437.688 619.402,1428.892 654.000 C 1425.606 666.925,1423.157 678.459,1423.448 679.631 C 1423.740 680.802,1424.771 681.950,1425.739 682.180 C 1428.283 682.785,1553.072 682.139,1555.721 681.506 C 1558.500 680.843,1560.760 673.753,1567.997 643.000 C 1570.790 631.130,1573.936 619.009,1575.914 612.500 C 1578.443 604.172,1581.378 592.850,1585.115 577.000 C 1590.039 556.117,1594.018 540.506,1603.595 504.500 C 1604.912 499.550,1606.895 491.675,1608.003 487.000 C 1609.818 479.338,1611.392 473.435,1617.740 450.482 C 1618.808 446.622,1620.232 442.436,1620.905 441.178 C 1621.578 439.921,1622.731 437.004,1623.467 434.696 C 1626.874 424.018,1635.406 406.300,1640.176 400.000 C 1653.300 382.665,1662.427 374.265,1674.339 368.560 C 1684.803 363.548,1689.156 362.747,1703.684 363.161 C 1715.468 363.497,1716.863 363.743,1721.009 366.217 C 1728.280 370.555,1731.721 374.831,1734.486 382.958 C 1736.640 389.292,1737.000 392.130,1737.000 402.776 C 1737.000 414.895,1735.063 429.342,1731.340 445.000 C 1730.489 448.575,1728.982 455.100,1727.990 459.500 C 1726.998 463.900,1724.733 473.575,1722.956 481.000 C 1721.179 488.425,1718.928 498.100,1717.953 502.500 C 1715.871 511.903,1712.475 525.010,1707.978 541.000 C 1706.199 547.325,1704.120 555.200,1703.358 558.500 C 1702.597 561.800,1701.078 567.875,1699.984 572.000 C 1698.890 576.125,1696.403 586.025,1694.457 594.000 C 1689.985 612.329,1687.530 621.785,1685.112 630.000 C 1682.946 637.361,1679.353 651.238,1675.358 667.681 C 1673.098 676.979,1672.860 679.127,1673.943 680.431 C 1675.101 681.827,1682.452 682.000,1740.599 682.000 C 1816.110 682.000,1807.299 683.628,1810.976 669.000 C 1812.151 664.325,1813.980 657.125,1815.041 653.000 C 1816.102 648.875,1817.242 644.150,1817.576 642.500 C 1817.909 640.850,1819.222 636.125,1820.494 632.000 C 1823.711 621.571,1829.684 598.427,1833.011 583.500 C 1835.850 570.761,1838.068 562.078,1840.622 553.698 C 1841.930 549.407,1842.998 545.357,1842.996 544.698 C 1842.993 544.039,1844.080 539.900,1845.412 535.500 C 1847.586 528.317,1849.563 520.282,1860.058 476.000 C 1861.687 469.125,1863.921 460.575,1865.021 457.000 C 1867.694 448.315,1872.150 430.327,1875.426 415.000 C 1881.247 387.766,1881.936 384.322,1882.527 379.500 C 1882.864 376.750,1883.994 370.000,1885.037 364.500 C 1887.821 349.818,1889.073 336.055,1889.097 319.862 C 1889.122 302.592,1887.812 292.696,1884.347 284.000 C 1879.809 272.610,1877.315 268.539,1870.207 260.929 C 1857.198 246.998,1837.701 239.314,1809.605 237.043 C 1795.143 235.873,1788.234 235.891,1773.000 237.137 M1254.500 238.123 C 1247.900 238.585,1239.350 239.462,1235.500 240.073 C 1193.929 246.665,1181.881 249.376,1164.000 256.159 C 1151.126 261.042,1130.461 271.180,1122.500 276.517 C 1103.633 289.166,1084.733 307.666,1074.502 323.500 C 1064.856 338.428,1054.130 363.279,1052.425 374.650 C 1051.902 378.138,1052.138 379.495,1053.536 381.039 C 1055.256 382.940,1056.831 382.996,1105.405 382.875 C 1132.957 382.807,1163.581 382.469,1173.459 382.125 C 1191.417 381.500,1191.417 381.500,1192.703 377.000 C 1195.624 366.776,1203.214 355.959,1210.824 351.172 C 1218.815 346.146,1223.744 345.492,1253.000 345.578 C 1283.100 345.667,1290.873 346.752,1298.373 351.913 C 1304.874 356.386,1307.710 360.286,1309.008 366.540 C 1309.955 371.102,1309.859 373.930,1308.469 382.300 C 1307.537 387.910,1306.173 393.964,1305.437 395.753 C 1304.701 397.542,1303.559 401.751,1302.900 405.105 C 1302.187 408.728,1300.710 412.380,1299.261 414.102 C 1296.822 417.000,1296.822 417.000,1244.161 417.013 C 1160.274 417.034,1142.224 418.353,1109.500 426.853 C 1095.558 430.475,1082.518 436.329,1067.000 445.933 C 1048.210 457.562,1033.699 471.167,1023.287 486.915 C 1014.522 500.171,1013.461 502.034,1010.704 509.000 C 1006.627 519.304,997.982 549.738,997.993 553.746 C 997.997 554.981,997.106 558.581,996.014 561.746 C 994.922 564.911,992.654 574.250,990.974 582.500 C 987.413 599.996,986.028 622.980,987.841 634.507 C 989.997 648.216,996.732 660.833,1006.937 670.282 C 1013.281 676.154,1017.873 678.801,1031.523 684.451 C 1054.144 693.814,1086.361 695.369,1128.000 689.108 C 1144.974 686.555,1156.735 683.688,1174.500 677.773 C 1201.060 668.930,1218.407 658.596,1237.215 640.415 C 1242.171 635.624,1245.617 633.023,1246.538 633.376 C 1248.356 634.074,1248.325 635.423,1246.377 640.500 C 1245.533 642.700,1244.022 648.100,1243.021 652.500 C 1242.019 656.900,1240.208 664.269,1238.997 668.876 C 1237.280 675.405,1237.032 677.776,1237.875 679.626 C 1238.957 682.000,1238.957 682.000,1302.229 681.985 C 1337.028 681.976,1366.034 681.630,1366.687 681.214 C 1368.247 680.223,1369.744 676.353,1372.572 666.000 C 1378.424 644.574,1382.030 630.263,1388.067 604.500 C 1390.902 592.400,1394.247 579.350,1395.500 575.500 C 1396.753 571.650,1398.106 566.475,1398.506 564.000 C 1398.905 561.525,1399.652 558.701,1400.165 557.724 C 1400.679 556.746,1401.932 552.246,1402.950 547.724 C 1403.969 543.201,1405.475 536.800,1406.297 533.500 C 1407.120 530.200,1409.008 522.100,1410.494 515.500 C 1413.596 501.724,1417.111 488.006,1420.488 476.500 C 1423.083 467.660,1427.535 448.926,1431.419 430.500 C 1432.810 423.900,1434.645 415.350,1435.497 411.500 C 1438.615 397.402,1441.404 383.897,1445.513 363.000 C 1448.060 350.044,1449.257 333.993,1448.722 319.966 C 1448.294 308.760,1447.738 305.060,1445.491 298.466 C 1440.245 283.067,1433.513 273.574,1421.350 264.420 C 1408.783 254.961,1395.367 249.054,1376.000 244.452 C 1362.998 241.362,1348.683 238.975,1337.500 238.032 C 1323.494 236.851,1271.883 236.908,1254.500 238.123 M2904.601 238.063 C 2893.557 239.344,2871.878 245.795,2860.500 251.186 C 2845.357 258.360,2825.331 273.602,2811.191 288.716 C 2805.384 294.922,2800.220 300.000,2799.716 300.000 C 2798.319 300.000,2799.516 292.688,2802.908 280.500 C 2809.350 257.354,2811.398 247.855,2810.317 246.141 C 2809.378 244.652,2803.393 244.476,2745.842 244.243 C 2694.963 244.036,2682.049 244.243,2680.620 245.289 C 2679.631 246.012,2678.245 249.242,2677.508 252.546 C 2676.776 255.821,2675.048 262.775,2673.666 268.000 C 2669.331 284.395,2666.230 296.093,2662.930 308.500 C 2661.174 315.100,2658.943 324.100,2657.970 328.500 C 2654.284 345.182,2649.323 365.181,2645.938 377.000 C 2644.914 380.575,2642.465 390.250,2640.496 398.500 C 2638.527 406.750,2636.037 416.875,2634.963 421.000 C 2632.614 430.019,2630.380 438.901,2627.919 449.000 C 2626.914 453.125,2624.706 461.450,2623.013 467.500 C 2618.519 483.561,2614.140 500.570,2612.588 508.000 C 2611.841 511.575,2609.787 519.900,2608.023 526.500 C 2606.259 533.100,2603.982 541.875,2602.964 546.000 C 2601.945 550.125,2599.711 558.675,2597.999 565.000 C 2594.990 576.123,2591.664 589.876,2587.963 606.500 C 2586.983 610.900,2585.025 618.775,2583.612 624.000 C 2582.198 629.225,2579.695 638.585,2578.048 644.801 C 2576.402 651.017,2574.815 656.490,2574.522 656.965 C 2573.483 658.646,2570.791 672.565,2570.646 677.000 C 2570.500 681.500,2570.500 681.500,2636.460 681.500 C 2702.420 681.500,2702.420 681.500,2704.574 678.305 C 2705.758 676.547,2707.025 673.172,2707.390 670.805 C 2707.754 668.437,2709.193 662.450,2710.587 657.500 C 2716.603 636.139,2717.961 631.115,2719.513 624.500 C 2720.415 620.650,2722.294 612.775,2723.687 607.000 C 2725.080 601.225,2727.029 593.125,2728.018 589.000 C 2729.885 581.212,2732.782 570.301,2737.975 551.500 C 2739.646 545.450,2741.903 536.450,2742.991 531.500 C 2744.871 522.945,2751.951 494.537,2757.321 474.000 C 2758.687 468.775,2760.458 462.700,2761.257 460.500 C 2762.055 458.300,2763.030 454.700,2763.424 452.500 C 2764.266 447.792,2768.108 434.836,2772.083 423.300 C 2774.967 414.931,2777.915 408.549,2780.983 404.031 C 2781.929 402.639,2784.388 398.958,2786.448 395.850 C 2793.612 385.047,2802.978 377.024,2815.294 371.141 C 2820.601 368.607,2823.890 367.769,2830.314 367.316 C 2847.182 366.126,2855.682 370.482,2859.920 382.487 C 2862.084 388.616,2862.240 390.246,2861.679 400.856 C 2861.340 407.260,2860.373 416.027,2859.531 420.338 C 2857.507 430.701,2857.524 436.603,2859.582 437.393 C 2860.452 437.727,2888.972 438.000,2922.959 438.000 C 2973.123 438.000,2984.963 437.750,2985.858 436.672 C 2987.125 435.145,2993.913 408.419,2998.022 388.779 C 2999.025 383.983,3000.107 379.635,3000.427 379.118 C 3000.747 378.601,3001.702 374.425,3002.550 369.839 C 3003.398 365.252,3004.737 359.475,3005.525 357.000 C 3007.953 349.376,3011.000 320.588,3011.000 305.265 C 3011.000 288.629,3009.271 278.415,3004.932 269.420 C 3000.901 261.064,2992.537 252.098,2985.049 248.107 C 2977.232 243.940,2962.697 239.432,2952.678 238.066 C 2943.819 236.859,2914.999 236.857,2904.601 238.063 M2491.292 245.508 C 2489.838 246.526,2488.772 248.883,2488.010 252.758 C 2487.390 255.916,2486.233 260.525,2485.439 263.000 C 2484.645 265.475,2481.524 277.850,2478.504 290.500 C 2472.536 315.498,2468.775 330.146,2465.923 339.500 C 2464.917 342.800,2462.469 352.250,2460.483 360.500 C 2453.283 390.400,2450.407 401.590,2443.002 428.500 C 2441.337 434.550,2439.066 443.325,2437.955 448.000 C 2435.843 456.885,2426.754 492.021,2422.562 507.500 C 2418.661 521.907,2404.900 575.898,2403.350 582.878 C 2402.571 586.386,2401.494 590.077,2400.957 591.080 C 2400.056 592.763,2397.566 602.172,2393.036 621.000 C 2392.044 625.125,2390.526 631.200,2389.663 634.500 C 2386.694 645.850,2384.841 653.514,2383.471 660.107 C 2382.716 663.740,2381.370 668.535,2380.479 670.761 C 2379.588 672.988,2379.003 676.315,2379.180 678.155 C 2379.500 681.500,2379.500 681.500,2449.500 681.739 C 2488.000 681.870,2520.104 681.593,2520.841 681.123 C 2522.224 680.243,2524.653 672.455,2527.896 658.500 C 2530.627 646.749,2532.977 637.516,2535.532 628.500 C 2538.257 618.887,2539.402 614.252,2548.009 578.000 C 2548.988 573.875,2551.015 566.000,2552.513 560.500 C 2558.958 536.833,2561.244 527.980,2563.058 519.667 C 2564.118 514.808,2565.229 510.438,2565.528 509.955 C 2565.826 509.472,2566.915 505.347,2567.947 500.789 C 2571.813 483.715,2577.076 463.402,2580.978 450.500 C 2581.976 447.200,2584.006 439.100,2585.490 432.500 C 2591.586 405.371,2595.867 387.868,2600.529 371.000 C 2608.273 342.983,2609.751 337.148,2613.573 319.500 C 2617.498 301.381,2621.551 285.299,2625.418 272.500 C 2628.505 262.283,2631.006 251.246,2631.003 247.857 C 2631.001 246.371,2630.307 244.948,2629.418 244.607 C 2628.548 244.273,2597.598 244.000,2560.641 244.000 C 2502.366 244.000,2493.159 244.200,2491.292 245.508 M2238.352 266.233 C 2249.335 269.983,2256.041 275.276,2259.882 283.226 C 2266.478 296.880,2266.479 320.042,2259.886 348.500 C 2255.945 365.511,2247.925 398.506,2246.396 404.000 C 2245.554 407.025,2244.048 412.650,2243.050 416.500 C 2242.053 420.350,2240.559 425.975,2239.730 429.000 C 2238.902 432.025,2237.009 439.675,2235.524 446.000 C 2234.038 452.325,2231.262 462.498,2229.354 468.608 C 2225.300 481.587,2214.035 504.520,2207.669 512.752 C 2187.590 538.717,2155.463 555.223,2119.572 558.015 C 2102.167 559.370,2057.060 559.266,2053.035 557.862 C 2049.910 556.773,2049.795 556.550,2050.349 552.612 C 2051.571 543.912,2059.528 510.858,2065.542 489.500 C 2069.158 476.661,2075.004 453.888,2077.993 441.000 C 2079.607 434.041,2082.549 422.823,2088.614 400.500 C 2089.959 395.550,2091.727 388.800,2092.543 385.500 C 2093.359 382.200,2094.919 376.125,2096.009 372.000 C 2098.186 363.758,2100.256 355.462,2102.992 344.000 C 2104.736 336.694,2106.428 330.209,2113.034 305.500 C 2114.799 298.900,2117.026 290.125,2117.984 286.000 C 2121.255 271.913,2123.956 264.162,2125.772 263.660 C 2126.722 263.397,2150.675 263.265,2179.000 263.367 C 2230.500 263.552,2230.500 263.552,2238.352 266.233 M835.548 347.885 C 846.388 348.533,849.856 349.156,856.048 351.569 C 870.098 357.044,875.630 365.502,875.295 381.000 C 875.117 389.258,871.642 405.148,868.735 411.000 C 866.594 415.311,866.269 415.532,861.000 416.254 C 857.975 416.668,829.028 416.807,796.674 416.563 C 736.630 416.110,735.000 415.998,735.000 412.346 C 735.000 410.060,738.736 399.642,741.999 392.827 C 748.524 379.203,763.090 362.818,774.000 356.830 C 789.670 348.228,804.705 346.043,835.548 347.885 M1251.700 511.542 C 1261.473 511.969,1267.522 512.661,1268.644 513.482 C 1270.201 514.620,1270.252 515.229,1269.117 519.129 C 1267.550 524.513,1261.952 535.591,1257.929 541.266 C 1256.278 543.595,1253.854 547.122,1252.542 549.105 C 1250.248 552.574,1243.346 558.830,1236.000 564.100 C 1226.882 570.640,1214.070 576.351,1204.911 577.957 C 1178.435 582.599,1150.105 581.220,1142.165 574.903 C 1137.777 571.411,1134.671 563.773,1134.682 556.500 C 1134.701 544.713,1141.422 529.397,1149.925 521.764 C 1157.655 514.825,1162.727 512.824,1174.379 512.115 C 1190.339 511.145,1235.010 510.814,1251.700 511.542 " fill="#F5F1EA" fill-rule="evenodd"></path></svg>